<svg 
  width="1024" 
  height="1024" 
  viewBox="0 0 64 64" 
  fill="none" 
  xmlns="http://www.w3.org/2000/svg"
>
  <!-- Dark matte background - near-black surface -->
  <defs>
    <linearGradient id="akt-dark-bg" x1="0" y1="0" x2="0" y2="64">
      <stop offset="0%" stop-color="#12121A" />
      <stop offset="100%" stop-color="#0D0D0F" />
    </linearGradient>
  </defs>
  
  <rect 
    x="0" 
    y="0" 
    width="64" 
    height="64" 
    rx="14" 
    fill="url(#akt-dark-bg)" 
  />
  
  <!-- Plate visualization bars forming "A" shape -->
  
  <!-- Left leg of A (ascending) -->
  <rect x="16" y="46" width="2.5" height="8" rx="0.5" fill="#8A8A8A" opacity="0.7" />
  <rect x="19" y="42" width="2.5" height="12" rx="0.5" fill="#A0A0A0" opacity="0.75" />
  <rect x="22" y="38" width="2.5" height="16" rx="0.5" fill="#B8B8B8" opacity="0.8" />
  <rect x="25" y="32" width="2.5" height="22" rx="0.5" fill="#D0D0D0" opacity="0.85" />
  <rect x="28" y="26" width="2.5" height="28" rx="0.5" fill="#E5E5E5" opacity="0.9" />
  
  <!-- Right leg of A (descending) -->
  <rect x="33.5" y="26" width="2.5" height="28" rx="0.5" fill="#E5E5E5" opacity="0.9" />
  <rect x="36.5" y="32" width="2.5" height="22" rx="0.5" fill="#D0D0D0" opacity="0.85" />
  <rect x="39.5" y="38" width="2.5" height="16" rx="0.5" fill="#B8B8B8" opacity="0.8" />
  <rect x="42.5" y="42" width="2.5" height="12" rx="0.5" fill="#A0A0A0" opacity="0.75" />
  <rect x="45.5" y="46" width="2.5" height="8" rx="0.5" fill="#8A8A8A" opacity="0.7" />
  
  <!-- Horizontal crossbar of A -->
  <rect x="22" y="40" width="20.5" height="2" rx="0.5" fill="#E5E5E5" opacity="0.95" />
  
  <!-- Subtle base line -->
  <line x1="16" y1="54.5" x2="48" y2="54.5" stroke="#FFFFFF" stroke-width="0.5" opacity="0.2" />
  
  <!-- Top apex indicator -->
  <rect x="29.5" y="12" width="5" height="2" rx="1" fill="#E5E5E5" opacity="0.7" />
  <rect x="30.5" y="16" width="3" height="1.5" rx="0.75" fill="#C0C0C0" opacity="0.6" />
</svg>